<svg xmlns="http://www.w3.org/2000/svg" width="1280" height="680" viewBox="0 0 1280 680">
  <rect width="1280" height="680" fill="#08111f"/>
  <text x="80" y="88" fill="#f8fafc" font-family="Segoe UI, Arial, sans-serif" font-size="34" font-weight="700">Multi-GPU Work Split</text>
  <text x="80" y="126" fill="#93c5fd" font-family="Segoe UI, Arial, sans-serif" font-size="20">Each GPU gets its own active recovery context,</text>
  <text x="80" y="154" fill="#93c5fd" font-family="Segoe UI, Arial, sans-serif" font-size="20">device buffers, and save-worker state.</text>
  <rect x="80" y="190" width="1110" height="90" rx="28" fill="#0f172a" stroke="#1e293b"/>
  <text x="120" y="238" fill="#f8fafc" font-family="JetBrains Mono, Consolas, monospace" font-size="20">Template set / wildcard range /</text>
  <text x="120" y="266" fill="#f8fafc" font-family="JetBrains Mono, Consolas, monospace" font-size="20">derivation list</text>
  <path d="M305 280v70" stroke="#64748b" stroke-width="6" stroke-linecap="round"/>
  <path d="M640 280v70" stroke="#64748b" stroke-width="6" stroke-linecap="round"/>
  <path d="M975 280v70" stroke="#64748b" stroke-width="6" stroke-linecap="round"/>
  <g font-family="Segoe UI, Arial, sans-serif">
    <rect x="70" y="350" width="260" height="180" rx="26" fill="#0b1321" stroke="#38bdf8"/>
    <text x="108" y="402" fill="#f8fafc" font-size="26" font-weight="700">GPU 0</text>
    <text x="108" y="438" fill="#cbd5e1" font-size="19">active device 1/4</text>
    <text x="108" y="468" fill="#cbd5e1" font-size="19">local tested count</text>
    <text x="108" y="496" fill="#cbd5e1" font-size="19">local checksum-valid count</text>

    <rect x="370" y="350" width="260" height="180" rx="26" fill="#0b1321" stroke="#22c55e"/>
    <text x="408" y="402" fill="#f8fafc" font-size="26" font-weight="700">GPU 1</text>
    <text x="408" y="438" fill="#cbd5e1" font-size="19">active device 2/4</text>
    <text x="408" y="468" fill="#cbd5e1" font-size="19">local tested count</text>
    <text x="408" y="496" fill="#cbd5e1" font-size="19">local checksum-valid count</text>

    <rect x="670" y="350" width="260" height="180" rx="26" fill="#0b1321" stroke="#f59e0b"/>
    <text x="708" y="402" fill="#f8fafc" font-size="26" font-weight="700">GPU 2</text>
    <text x="708" y="438" fill="#cbd5e1" font-size="19">active device 3/4</text>
    <text x="708" y="468" fill="#cbd5e1" font-size="19">local tested count</text>
    <text x="708" y="496" fill="#cbd5e1" font-size="19">local checksum-valid count</text>

    <rect x="970" y="350" width="240" height="180" rx="26" fill="#0b1321" stroke="#a78bfa"/>
    <text x="1006" y="402" fill="#f8fafc" font-size="26" font-weight="700">GPU 3</text>
    <text x="1006" y="438" fill="#cbd5e1" font-size="19">active device 4/4</text>
    <text x="1006" y="468" fill="#cbd5e1" font-size="19">local tested count</text>
    <text x="1006" y="496" fill="#cbd5e1" font-size="19">local checksum-valid count</text>
  </g>
  <rect x="296" y="560" width="688" height="92" rx="24" fill="#0f172a" stroke="#1e293b"/>
  <text x="342" y="602" fill="#f8fafc" font-family="Segoe UI, Arial, sans-serif" font-size="23" font-weight="700">Final summary = aggregate device-local totals</text>
  <text x="342" y="632" fill="#f8fafc" font-family="Segoe UI, Arial, sans-serif" font-size="23" font-weight="700">+ shared found counter</text>
</svg>
